<svg version="1.1" id="Layer_1" xmlns="http://www.w3.org/2000/svg" xmlns:xlink="http://www.w3.org/1999/xlink" x="0px" y="0px"
	 width="100%" viewBox="0 0 1536 1024" enable-background="new 0 0 1536 1024" xml:space="preserve">
<path fill="#0D0B0E" opacity="1.000000" stroke="none" 
	d="
M967.000000,1025.000000 
	C644.666687,1025.000000 322.833344,1025.000000 1.000000,1025.000000 
	C1.000000,683.666687 1.000000,342.333344 1.000000,1.000000 
	C513.000000,1.000000 1025.000000,1.000000 1537.000000,1.000000 
	C1537.000000,342.333344 1537.000000,683.666687 1537.000000,1025.000000 
	C1347.166626,1025.000000 1157.333374,1025.000000 967.000000,1025.000000 
M374.499878,384.816925 
	C354.170593,384.823334 333.841217,384.798828 313.512085,384.857666 
	C308.358734,384.872589 307.210693,386.408112 308.433960,391.282318 
	C320.671478,440.044342 332.872192,488.815826 345.309967,537.526733 
	C346.002808,540.240112 348.191864,543.166687 350.524750,544.775818 
	C380.823883,565.674133 411.297638,586.319092 441.643219,607.150635 
	C443.923401,608.715881 445.401428,608.977661 447.754181,607.357056 
	C477.795837,586.664490 507.949646,566.134338 537.922485,545.343079 
	C540.216248,543.751953 542.240540,540.714600 542.899170,537.989197 
	C548.802979,513.559631 554.376770,489.050262 560.031250,464.560577 
	C560.455505,462.722839 560.753357,460.855957 561.118896,458.956299 
	C513.408081,458.956299 466.376160,458.956299 418.500977,458.956299 
	C420.178894,461.439056 421.321503,463.213562 422.546844,464.928986 
	C430.099152,475.502014 437.751038,486.005371 445.173828,496.668335 
	C446.875061,499.112183 448.604370,500.110046 451.638641,500.080170 
	C467.967651,499.919373 484.299133,500.008148 500.629761,500.010651 
	C502.725830,500.010986 504.821899,500.010681 508.710236,500.010681 
	C506.204559,505.256134 505.355499,510.707520 502.202911,513.024109 
	C484.627716,525.938477 466.451935,538.032898 448.595673,550.570251 
	C445.744385,552.572205 443.767059,552.259460 441.088959,550.365723 
	C422.457367,537.191345 403.701294,524.192932 385.072632,511.014435 
	C383.611877,509.981018 382.232849,508.156189 381.798920,506.449280 
	C376.139557,484.186584 370.649384,461.880859 365.139801,439.580200 
	C364.251831,435.985962 363.476379,432.363922 362.534332,428.254883 
	C364.908447,428.254883 366.382172,428.254272 367.855896,428.254944 
	C392.011627,428.265686 416.167358,428.259674 440.323059,428.291321 
	C478.475708,428.341309 516.628906,428.317780 554.780701,428.537354 
	C567.293884,428.609375 567.259827,428.899506 571.312012,417.105530 
	C574.923462,406.594330 578.617126,396.111450 582.555542,384.809662 
	C513.011719,384.809662 444.255798,384.809662 374.499878,384.816925 
M1131.118286,434.259125 
	C1112.656250,434.124695 1094.181396,433.506073 1075.735596,433.990265 
	C1056.814697,434.486938 1045.150024,444.274811 1041.117920,462.600128 
	C1037.437378,479.326569 1034.260376,496.180969 1031.453125,513.077271 
	C1028.889648,528.507141 1035.978149,538.939331 1051.460815,539.800598 
	C1072.005249,540.943359 1092.720093,540.832031 1113.262451,539.602905 
	C1128.347900,538.700317 1138.513428,529.068420 1142.182861,514.476746 
	C1146.438477,497.554199 1149.852783,480.375000 1152.677979,463.150757 
	C1155.402222,446.541443 1148.248413,437.360687 1131.118286,434.259125 
M953.744629,540.647522 
	C954.463318,538.693237 955.449402,536.793030 955.857422,534.775879 
	C958.530396,521.560303 961.038025,508.311340 963.724854,495.098724 
	C964.018616,493.654083 964.842590,491.465485 965.873535,491.162354 
	C972.073547,489.339539 978.374023,487.812988 984.706726,486.506348 
	C987.979187,485.831116 989.258667,487.542206 988.598572,490.887634 
	C987.180664,498.073761 985.949402,505.296509 984.555359,512.487549 
	C982.763855,521.728699 980.887512,530.953491 978.914001,540.856201 
	C989.116882,540.856201 998.582703,540.949341 1008.040649,540.717590 
	C1009.024780,540.693481 1010.522461,538.879944 1010.821167,537.661255 
	C1011.968933,532.978271 1012.752625,528.204407 1013.622925,523.455383 
	C1016.142273,509.708344 1019.159912,496.026093 1020.992615,482.187378 
	C1022.750854,468.910889 1016.526611,462.274902 1003.116638,461.235870 
	C990.059998,460.224182 977.550171,462.099854 965.626404,468.323944 
	C958.744568,460.745392 949.500854,460.483856 940.564514,461.135651 
	C931.727295,461.780182 923.007385,464.033447 913.968628,465.628174 
	C913.801392,464.950958 913.462463,463.578064 913.143494,462.285950 
	C903.409546,462.285950 893.954712,462.285950 884.249268,462.285950 
	C879.202087,488.392578 874.199097,514.270569 869.065063,540.826233 
	C879.328430,540.826233 888.795532,540.919861 898.254150,540.681458 
	C899.199341,540.657593 900.657166,538.736389 900.922363,537.492310 
	C903.038574,527.565735 905.131531,517.625244 906.835205,507.621552 
	C909.867188,489.818024 910.344299,489.217682 928.474670,486.507965 
	C928.639465,486.483337 928.806152,486.464020 928.967468,486.424133 
	C932.814819,485.472748 934.359558,486.853363 933.554016,490.821350 
	C932.195679,497.512268 930.902466,504.216431 929.592957,510.917175 
	C927.689880,520.655273 925.796753,530.395325 923.773010,540.783142 
	C933.958069,540.783142 943.420288,540.783142 953.744629,540.647522 
M702.486938,465.392426 
	C703.899231,459.706085 707.874146,457.901245 713.326843,457.921204 
	C731.820618,457.988953 750.315125,457.986420 768.808289,457.854095 
	C770.299072,457.843414 772.869019,456.898193 773.094604,455.949158 
	C774.813171,448.720184 776.073120,441.382233 777.625488,433.299103 
	C775.008057,433.299103 773.224365,433.301819 771.440735,433.298706 
	C752.946716,433.266479 734.452393,433.173798 715.958740,433.241028 
	C711.151184,433.258514 706.317688,433.539795 701.543762,434.103546 
	C683.225708,436.266510 672.634888,446.218292 669.132202,464.226532 
	C666.971191,475.336487 664.440247,486.384125 662.633606,497.550079 
	C661.312683,505.713989 660.262207,514.025208 660.264404,522.270386 
	C660.266541,530.413147 665.324158,535.963135 672.932861,538.483643 
	C677.132874,539.874878 681.714111,540.648254 686.140686,540.726379 
	C701.797607,541.002930 717.462646,540.956360 733.123291,540.847046 
	C747.773254,540.744812 759.473450,533.314575 762.977356,520.304932 
	C766.811646,506.068787 769.180664,491.438080 772.344727,476.227234 
	C755.051025,476.227234 738.610229,476.206116 722.170044,476.299438 
	C721.465271,476.303406 720.288879,477.260376 720.139648,477.948517 
	C718.819641,484.034943 717.682373,490.160980 716.363953,496.928162 
	C723.612732,496.928162 730.041504,496.928162 736.752808,496.928162 
	C736.081238,501.268524 735.620850,505.064575 734.885986,508.806732 
	C733.682922,514.933228 731.524841,516.734985 725.386292,516.806763 
	C717.722961,516.896423 710.057800,516.927124 702.394226,516.870972 
	C694.763123,516.815002 693.059082,514.552429 694.524048,506.904388 
	C697.124084,493.330811 699.677124,479.748199 702.486938,465.392426 
M1188.729614,498.455994 
	C1200.836548,499.561981 1212.939819,500.711578 1225.052612,501.749512 
	C1229.111206,502.097260 1230.523926,504.100281 1229.984985,508.062317 
	C1229.148926,514.211792 1226.001953,516.670044 1218.804199,516.659058 
	C1198.334717,516.627747 1177.865112,516.648132 1157.039917,516.648132 
	C1155.448364,524.822510 1153.918213,532.681519 1152.302246,540.981079 
	C1161.786255,540.981079 1170.435059,541.078247 1179.081055,540.960693 
	C1196.563477,540.722961 1214.068115,540.824341 1231.518066,539.912170 
	C1244.437500,539.236938 1254.590820,533.082275 1258.938477,520.243896 
	C1261.046753,514.018066 1262.477295,507.328766 1262.800781,500.779419 
	C1263.567261,485.262482 1257.201294,478.357452 1241.770508,476.962860 
	C1229.185791,475.825470 1216.562622,475.098267 1203.992065,473.834625 
	C1201.705933,473.604828 1198.404663,472.193146 1197.615845,470.418488 
	C1195.015869,464.570038 1199.334351,458.434814 1205.793945,458.210938 
	C1211.786865,458.003204 1217.792114,458.146454 1223.791992,458.145020 
	C1238.269165,458.141602 1252.746216,458.143951 1267.458618,458.143951 
	C1269.110962,449.883118 1270.691406,441.982025 1272.258911,434.145264 
	C1246.717529,434.145264 1221.732300,433.583405 1196.792358,434.400146 
	C1185.587280,434.767090 1174.959595,439.313965 1169.493774,450.179199 
	C1166.570557,455.990204 1164.823853,462.688019 1163.940674,469.175446 
	C1161.194702,489.346405 1167.364014,496.566315 1188.729614,498.455994 
M811.132629,472.214111 
	C810.615845,468.962402 810.099121,465.710724 809.566589,462.359802 
	C799.208313,462.359802 789.166748,462.359802 778.824158,462.359802 
	C779.093201,464.050629 779.249878,465.353088 779.511780,466.634003 
	C784.378113,490.430878 789.072571,514.265747 794.292786,537.984863 
	C795.305237,542.585205 793.846924,545.228088 790.456421,547.004211 
	C787.609863,548.495422 784.283142,549.257935 781.077209,549.815552 
	C778.528564,550.258850 775.841248,549.904968 773.177368,549.904968 
	C771.947815,557.253540 770.805420,564.081238 769.657837,570.939941 
	C797.230957,573.693420 813.603943,566.496277 827.323425,544.881714 
	C842.846436,520.425720 858.060791,495.773834 873.411621,471.208557 
	C875.198547,468.348969 877.000244,465.498657 879.197510,462.003998 
	C868.961975,462.003998 859.804504,462.180115 850.660156,461.910950 
	C847.343323,461.813293 845.656128,462.842255 844.134827,465.776428 
	C836.396118,480.701752 828.420837,495.504547 820.496460,510.333191 
	C819.808533,511.620453 818.888367,512.783630 817.610718,514.703674 
	C815.372253,500.024933 813.317566,486.551605 811.132629,472.214111 
M322.933624,515.415161 
	C315.234131,483.975372 307.534607,452.535553 299.759705,420.787903 
	C291.107819,422.836517 283.135620,424.724182 274.855469,426.684784 
	C277.079071,435.919800 279.118195,444.468842 281.197357,453.008118 
	C287.097778,477.241913 292.981140,501.480072 299.010864,525.681702 
	C299.360321,527.084412 300.911407,529.210205 301.970154,529.250671 
	C309.883484,529.553345 317.813660,529.415222 326.424072,529.415222 
	C325.179810,524.509155 324.130432,520.371521 322.933624,515.415161 
M562.905640,529.015442 
	C569.728943,529.149414 576.560669,529.125061 583.372131,529.483826 
	C586.805664,529.664673 588.236267,528.638428 589.053284,525.113464 
	C594.538208,501.449219 600.316345,477.853058 605.960693,454.225586 
	C608.114990,445.207367 610.167480,436.164856 612.360291,426.729370 
	C603.961060,424.714386 596.118164,422.832855 588.165039,420.924896 
	C587.649597,422.522766 587.226013,423.600494 586.953674,424.715118 
	C581.937805,445.240540 576.880432,465.756104 571.959045,486.304230 
	C568.593140,500.357849 565.422119,514.458191 562.905640,529.015442 
M256.424011,497.236633 
	C257.317261,500.780945 258.056976,504.375519 259.191498,507.840820 
	C259.561340,508.970551 260.931824,510.548431 261.893616,510.583649 
	C268.479950,510.824799 275.079346,510.710114 282.574951,510.710114 
	C277.294098,489.535675 272.221619,469.196564 267.086548,448.606628 
	C259.680023,451.011444 253.097473,453.148712 246.204391,455.386810 
	C249.612503,469.359222 252.914108,482.895111 256.424011,497.236633 
M614.459656,473.814392 
	C611.496826,485.873444 608.533936,497.932495 605.389587,510.730164 
	C612.813538,510.730164 619.289612,510.900513 625.740234,510.571289 
	C626.884827,510.512848 628.517883,508.545013 628.909485,507.169647 
	C630.777405,500.609222 632.328796,493.957245 633.929321,487.322540 
	C636.494202,476.690277 639.008972,466.045990 641.618774,455.096893 
	C634.311829,452.972168 627.553101,451.006897 620.460449,448.944489 
	C618.414368,457.516266 616.562988,465.272186 614.459656,473.814392 
z"/>
<path fill="#E31017" opacity="1.000000" stroke="none" 
	d="
M374.999878,384.813293 
	C444.255798,384.809662 513.011719,384.809662 582.555542,384.809662 
	C578.617126,396.111450 574.923462,406.594330 571.312012,417.105530 
	C567.259827,428.899506 567.293884,428.609375 554.780701,428.537354 
	C516.628906,428.317780 478.475708,428.341309 440.323059,428.291321 
	C416.167358,428.259674 392.011627,428.265686 367.855896,428.254944 
	C366.382172,428.254272 364.908447,428.254883 362.534332,428.254883 
	C363.476379,432.363922 364.251831,435.985962 365.139801,439.580200 
	C370.649384,461.880859 376.139557,484.186584 381.798920,506.449280 
	C382.232849,508.156189 383.611877,509.981018 385.072632,511.014435 
	C403.701294,524.192932 422.457367,537.191345 441.088959,550.365723 
	C443.767059,552.259460 445.744385,552.572205 448.595673,550.570251 
	C466.451935,538.032898 484.627716,525.938477 502.202911,513.024109 
	C505.355499,510.707520 506.204559,505.256134 508.710236,500.010681 
	C504.821899,500.010681 502.725830,500.010986 500.629761,500.010651 
	C484.299133,500.008148 467.967651,499.919373 451.638641,500.080170 
	C448.604370,500.110046 446.875061,499.112183 445.173828,496.668335 
	C437.751038,486.005371 430.099152,475.502014 422.546844,464.928986 
	C421.321503,463.213562 420.178894,461.439056 418.500977,458.956299 
	C466.376160,458.956299 513.408081,458.956299 561.118896,458.956299 
	C560.753357,460.855957 560.455505,462.722839 560.031250,464.560577 
	C554.376770,489.050262 548.802979,513.559631 542.899170,537.989197 
	C542.240540,540.714600 540.216248,543.751953 537.922485,545.343079 
	C507.949646,566.134338 477.795837,586.664490 447.754181,607.357056 
	C445.401428,608.977661 443.923401,608.715881 441.643219,607.150635 
	C411.297638,586.319092 380.823883,565.674133 350.524750,544.775818 
	C348.191864,543.166687 346.002808,540.240112 345.309967,537.526733 
	C332.872192,488.815826 320.671478,440.044342 308.433960,391.282318 
	C307.210693,386.408112 308.358734,384.872589 313.512085,384.857666 
	C333.841217,384.798828 354.170593,384.823334 374.999878,384.813293 
z"/>
<path fill="#FCFCFC" opacity="1.000000" stroke="none" 
	d="
M1131.533447,434.378479 
	C1148.248413,437.360687 1155.402222,446.541443 1152.677979,463.150757 
	C1149.852783,480.375000 1146.438477,497.554199 1142.182861,514.476746 
	C1138.513428,529.068420 1128.347900,538.700317 1113.262451,539.602905 
	C1092.720093,540.832031 1072.005249,540.943359 1051.460815,539.800598 
	C1035.978149,538.939331 1028.889648,528.507141 1031.453125,513.077271 
	C1034.260376,496.180969 1037.437378,479.326569 1041.117920,462.600128 
	C1045.150024,444.274811 1056.814697,434.486938 1075.735596,433.990265 
	C1094.181396,433.506073 1112.656250,434.124695 1131.533447,434.378479 
M1092.465454,516.401062 
	C1093.962769,516.397583 1095.460205,516.406250 1096.957397,516.388672 
	C1105.699951,516.285889 1109.361328,513.272217 1111.038574,504.774994 
	C1111.553223,502.168182 1112.011108,499.550232 1112.501587,496.938599 
	C1114.371460,486.983002 1116.490356,477.065796 1118.030396,467.059479 
	C1119.080444,460.236847 1117.441772,457.843872 1110.700317,457.421753 
	C1101.932007,456.872742 1093.079590,457.079376 1084.296387,457.561096 
	C1078.609131,457.872986 1074.849731,461.325165 1073.709595,467.135284 
	C1071.119263,480.335419 1068.407104,493.514435 1066.054077,506.757050 
	C1065.017212,512.592346 1067.048340,515.244751 1073.048584,515.830811 
	C1079.151489,516.426819 1085.330688,516.240662 1092.465454,516.401062 
z"/>
<path fill="#E21017" opacity="1.000000" stroke="none" 
	d="
M953.313599,540.715332 
	C943.420288,540.783142 933.958069,540.783142 923.773010,540.783142 
	C925.796753,530.395325 927.689880,520.655273 929.592957,510.917175 
	C930.902466,504.216431 932.195679,497.512268 933.554016,490.821350 
	C934.359558,486.853363 932.814819,485.472748 928.967468,486.424133 
	C928.806152,486.464020 928.639465,486.483337 928.474670,486.507965 
	C910.344299,489.217682 909.867188,489.818024 906.835205,507.621552 
	C905.131531,517.625244 903.038574,527.565735 900.922363,537.492310 
	C900.657166,538.736389 899.199341,540.657593 898.254150,540.681458 
	C888.795532,540.919861 879.328430,540.826233 869.065063,540.826233 
	C874.199097,514.270569 879.202087,488.392578 884.249268,462.285950 
	C893.954712,462.285950 903.409546,462.285950 913.143494,462.285950 
	C913.462463,463.578064 913.801392,464.950958 913.968628,465.628174 
	C923.007385,464.033447 931.727295,461.780182 940.564514,461.135651 
	C949.500854,460.483856 958.744568,460.745392 965.626404,468.323944 
	C977.550171,462.099854 990.059998,460.224182 1003.116638,461.235870 
	C1016.526611,462.274902 1022.750854,468.910889 1020.992615,482.187378 
	C1019.159912,496.026093 1016.142273,509.708344 1013.622925,523.455383 
	C1012.752625,528.204407 1011.968933,532.978271 1010.821167,537.661255 
	C1010.522461,538.879944 1009.024780,540.693481 1008.040649,540.717590 
	C998.582703,540.949341 989.116882,540.856201 978.914001,540.856201 
	C980.887512,530.953491 982.763855,521.728699 984.555359,512.487549 
	C985.949402,505.296509 987.180664,498.073761 988.598572,490.887634 
	C989.258667,487.542206 987.979187,485.831116 984.706726,486.506348 
	C978.374023,487.812988 972.073547,489.339539 965.873535,491.162354 
	C964.842590,491.465485 964.018616,493.654083 963.724854,495.098724 
	C961.038025,508.311340 958.530396,521.560303 955.857422,534.775879 
	C955.449402,536.793030 954.463318,538.693237 953.313599,540.715332 
z"/>
<path fill="#E20F16" opacity="1.000000" stroke="none" 
	d="
M702.368408,465.780884 
	C699.677124,479.748199 697.124084,493.330811 694.524048,506.904388 
	C693.059082,514.552429 694.763123,516.815002 702.394226,516.870972 
	C710.057800,516.927124 717.722961,516.896423 725.386292,516.806763 
	C731.524841,516.734985 733.682922,514.933228 734.885986,508.806732 
	C735.620850,505.064575 736.081238,501.268524 736.752808,496.928162 
	C730.041504,496.928162 723.612732,496.928162 716.363953,496.928162 
	C717.682373,490.160980 718.819641,484.034943 720.139648,477.948517 
	C720.288879,477.260376 721.465271,476.303406 722.170044,476.299438 
	C738.610229,476.206116 755.051025,476.227234 772.344727,476.227234 
	C769.180664,491.438080 766.811646,506.068787 762.977356,520.304932 
	C759.473450,533.314575 747.773254,540.744812 733.123291,540.847046 
	C717.462646,540.956360 701.797607,541.002930 686.140686,540.726379 
	C681.714111,540.648254 677.132874,539.874878 672.932861,538.483643 
	C665.324158,535.963135 660.266541,530.413147 660.264404,522.270386 
	C660.262207,514.025208 661.312683,505.713989 662.633606,497.550079 
	C664.440247,486.384125 666.971191,475.336487 669.132202,464.226532 
	C672.634888,446.218292 683.225708,436.266510 701.543762,434.103546 
	C706.317688,433.539795 711.151184,433.258514 715.958740,433.241028 
	C734.452393,433.173798 752.946716,433.266479 771.440735,433.298706 
	C773.224365,433.301819 775.008057,433.299103 777.625488,433.299103 
	C776.073120,441.382233 774.813171,448.720184 773.094604,455.949158 
	C772.869019,456.898193 770.299072,457.843414 768.808289,457.854095 
	C750.315125,457.986420 731.820618,457.988953 713.326843,457.921204 
	C707.874146,457.901245 703.899231,459.706085 702.368408,465.780884 
z"/>
<path fill="#FBFBFB" opacity="1.000000" stroke="none" 
	d="
M1188.276245,498.411560 
	C1167.364014,496.566315 1161.194702,489.346405 1163.940674,469.175446 
	C1164.823853,462.688019 1166.570557,455.990204 1169.493774,450.179199 
	C1174.959595,439.313965 1185.587280,434.767090 1196.792358,434.400146 
	C1221.732300,433.583405 1246.717529,434.145264 1272.258911,434.145264 
	C1270.691406,441.982025 1269.110962,449.883118 1267.458618,458.143951 
	C1252.746216,458.143951 1238.269165,458.141602 1223.791992,458.145020 
	C1217.792114,458.146454 1211.786865,458.003204 1205.793945,458.210938 
	C1199.334351,458.434814 1195.015869,464.570038 1197.615845,470.418488 
	C1198.404663,472.193146 1201.705933,473.604828 1203.992065,473.834625 
	C1216.562622,475.098267 1229.185791,475.825470 1241.770508,476.962860 
	C1257.201294,478.357452 1263.567261,485.262482 1262.800781,500.779419 
	C1262.477295,507.328766 1261.046753,514.018066 1258.938477,520.243896 
	C1254.590820,533.082275 1244.437500,539.236938 1231.518066,539.912170 
	C1214.068115,540.824341 1196.563477,540.722961 1179.081055,540.960693 
	C1170.435059,541.078247 1161.786255,540.981079 1152.302246,540.981079 
	C1153.918213,532.681519 1155.448364,524.822510 1157.039917,516.648132 
	C1177.865112,516.648132 1198.334717,516.627747 1218.804199,516.659058 
	C1226.001953,516.670044 1229.148926,514.211792 1229.984985,508.062317 
	C1230.523926,504.100281 1229.111206,502.097260 1225.052612,501.749512 
	C1212.939819,500.711578 1200.836548,499.561981 1188.276245,498.411560 
z"/>
<path fill="#E30F17" opacity="1.000000" stroke="none" 
	d="
M811.197754,472.646179 
	C813.317566,486.551605 815.372253,500.024933 817.610718,514.703674 
	C818.888367,512.783630 819.808533,511.620453 820.496460,510.333191 
	C828.420837,495.504547 836.396118,480.701752 844.134827,465.776428 
	C845.656128,462.842255 847.343323,461.813293 850.660156,461.910950 
	C859.804504,462.180115 868.961975,462.003998 879.197510,462.003998 
	C877.000244,465.498657 875.198547,468.348969 873.411621,471.208557 
	C858.060791,495.773834 842.846436,520.425720 827.323425,544.881714 
	C813.603943,566.496277 797.230957,573.693420 769.657837,570.939941 
	C770.805420,564.081238 771.947815,557.253540 773.177368,549.904968 
	C775.841248,549.904968 778.528564,550.258850 781.077209,549.815552 
	C784.283142,549.257935 787.609863,548.495422 790.456421,547.004211 
	C793.846924,545.228088 795.305237,542.585205 794.292786,537.984863 
	C789.072571,514.265747 784.378113,490.430878 779.511780,466.634003 
	C779.249878,465.353088 779.093201,464.050629 778.824158,462.359802 
	C789.166748,462.359802 799.208313,462.359802 809.566589,462.359802 
	C810.099121,465.710724 810.615845,468.962402 811.197754,472.646179 
z"/>
<path fill="#E20F16" opacity="1.000000" stroke="none" 
	d="
M323.007324,515.824524 
	C324.130432,520.371521 325.179810,524.509155 326.424072,529.415222 
	C317.813660,529.415222 309.883484,529.553345 301.970154,529.250671 
	C300.911407,529.210205 299.360321,527.084412 299.010864,525.681702 
	C292.981140,501.480072 287.097778,477.241913 281.197357,453.008118 
	C279.118195,444.468842 277.079071,435.919800 274.855469,426.684784 
	C283.135620,424.724182 291.107819,422.836517 299.759705,420.787903 
	C307.534607,452.535553 315.234131,483.975372 323.007324,515.824524 
z"/>
<path fill="#E20F16" opacity="1.000000" stroke="none" 
	d="
M562.534790,528.776489 
	C565.422119,514.458191 568.593140,500.357849 571.959045,486.304230 
	C576.880432,465.756104 581.937805,445.240540 586.953674,424.715118 
	C587.226013,423.600494 587.649597,422.522766 588.165039,420.924896 
	C596.118164,422.832855 603.961060,424.714386 612.360291,426.729370 
	C610.167480,436.164856 608.114990,445.207367 605.960693,454.225586 
	C600.316345,477.853058 594.538208,501.449219 589.053284,525.113464 
	C588.236267,528.638428 586.805664,529.664673 583.372131,529.483826 
	C576.560669,529.125061 569.728943,529.149414 562.534790,528.776489 
z"/>
<path fill="#E21017" opacity="1.000000" stroke="none" 
	d="
M256.319885,496.833801 
	C252.914108,482.895111 249.612503,469.359222 246.204391,455.386810 
	C253.097473,453.148712 259.680023,451.011444 267.086548,448.606628 
	C272.221619,469.196564 277.294098,489.535675 282.574951,510.710114 
	C275.079346,510.710114 268.479950,510.824799 261.893616,510.583649 
	C260.931824,510.548431 259.561340,508.970551 259.191498,507.840820 
	C258.056976,504.375519 257.317261,500.780945 256.319885,496.833801 
z"/>
<path fill="#E20F16" opacity="1.000000" stroke="none" 
	d="
M614.585693,473.421265 
	C616.562988,465.272186 618.414368,457.516266 620.460449,448.944489 
	C627.553101,451.006897 634.311829,452.972168 641.618774,455.096893 
	C639.008972,466.045990 636.494202,476.690277 633.929321,487.322540 
	C632.328796,493.957245 630.777405,500.609222 628.909485,507.169647 
	C628.517883,508.545013 626.884827,510.512848 625.740234,510.571289 
	C619.289612,510.900513 612.813538,510.730164 605.389587,510.730164 
	C608.533936,497.932495 611.496826,485.873444 614.585693,473.421265 
z"/>
<path fill="#100D11" opacity="1.000000" stroke="none" 
	d="
M1091.970947,516.399048 
	C1085.330688,516.240662 1079.151489,516.426819 1073.048584,515.830811 
	C1067.048340,515.244751 1065.017212,512.592346 1066.054077,506.757050 
	C1068.407104,493.514435 1071.119263,480.335419 1073.709595,467.135284 
	C1074.849731,461.325165 1078.609131,457.872986 1084.296387,457.561096 
	C1093.079590,457.079376 1101.932007,456.872742 1110.700317,457.421753 
	C1117.441772,457.843872 1119.080444,460.236847 1118.030396,467.059479 
	C1116.490356,477.065796 1114.371460,486.983002 1112.501587,496.938599 
	C1112.011108,499.550232 1111.553223,502.168182 1111.038574,504.774994 
	C1109.361328,513.272217 1105.699951,516.285889 1096.957397,516.388672 
	C1095.460205,516.406250 1093.962769,516.397583 1091.970947,516.399048 
z"/>
</svg>