<svg version="1.1" id="Layer_1" xmlns="http://www.w3.org/2000/svg" xmlns:xlink="http://www.w3.org/1999/xlink" x="0px" y="0px"
	 width="100%" viewBox="0 0 1024 1024" enable-background="new 0 0 1024 1024" xml:space="preserve">
<path fill="#0D0C0E" opacity="1.000000" stroke="none" 
	d="
M494.000000,1025.000000 
	C329.333344,1025.000000 165.166672,1025.000000 1.000000,1025.000000 
	C1.000000,683.666687 1.000000,342.333344 1.000000,1.000000 
	C342.333344,1.000000 683.666687,1.000000 1025.000000,1.000000 
	C1025.000000,342.333344 1025.000000,683.666687 1025.000000,1025.000000 
	C848.166687,1025.000000 671.333313,1025.000000 494.000000,1025.000000 
M496.338135,682.144348 
	C499.790619,684.469543 503.250275,686.784180 506.694092,689.122131 
	C513.465515,693.719177 513.422913,693.667114 520.313232,688.994446 
	C574.640137,652.153442 628.966370,615.311401 683.364319,578.575500 
	C686.480164,576.471252 688.169495,574.082642 689.022827,570.421875 
	C699.157959,526.944946 709.450562,483.504761 719.674438,440.048462 
	C720.616211,436.045685 721.369324,431.998566 722.267090,427.698761 
	C637.180847,427.698761 552.661987,427.698761 467.453522,427.698761 
	C468.515594,429.422455 469.124481,430.546082 469.858063,431.581329 
	C485.269958,453.329285 500.643951,475.104797 516.233826,496.724548 
	C517.294189,498.195068 519.992859,499.199036 521.936707,499.210510 
	C551.932861,499.387390 581.930176,499.364014 611.927185,499.386230 
	C615.544983,499.388916 619.162781,499.386597 623.745789,499.386597 
	C622.095886,505.401917 620.381836,510.415283 619.422485,515.569153 
	C618.747192,519.196899 616.925537,521.396240 614.029663,523.395325 
	C581.811279,545.637024 549.618958,567.917114 517.537354,590.355225 
	C514.478943,592.494324 512.494629,592.751709 509.359009,590.519836 
	C482.486206,571.392273 455.524658,552.388306 428.481476,533.502258 
	C423.596954,530.091064 419.923340,525.919800 416.606384,520.996826 
	C412.154724,514.389709 406.621826,508.520599 401.951904,502.046997 
	C399.611115,498.802124 397.374969,495.115143 396.418610,491.295807 
	C388.165527,458.335449 380.207947,425.301056 372.180725,392.284271 
	C370.661255,386.034546 369.223541,379.764893 367.612610,372.929443 
	C369.970367,372.929443 371.609344,372.930298 373.248352,372.929291 
	C405.246063,372.909607 437.243774,372.878662 469.241486,372.871948 
	C555.735657,372.853821 642.229858,372.811188 728.723816,372.937866 
	C732.993286,372.944122 734.877441,371.548096 736.128906,367.626801 
	C740.585388,353.662933 745.333984,339.792297 749.973755,325.886902 
	C753.273254,315.998413 756.575439,306.110779 760.133301,295.453430 
	C757.583008,295.453430 755.814514,295.450531 754.046082,295.453857 
	C724.882568,295.508820 695.719116,295.616974 666.555603,295.609711 
	C594.733765,295.591858 522.911865,295.487244 451.090027,295.482300 
	C394.429871,295.478394 337.769684,295.586517 281.109528,295.604980 
	C271.836304,295.608032 269.513397,298.410553 271.723846,307.347961 
	C292.518951,391.427582 313.478424,475.467346 333.910400,559.635132 
	C336.526306,570.410889 341.095947,577.616699 350.717285,583.948120 
	C399.419739,615.997498 447.466034,649.043945 496.338135,682.144348 
M790.515015,363.080383 
	C783.912903,361.530609 777.310791,359.980804 770.285034,358.331573 
	C754.807068,422.696777 739.423706,486.668701 723.855896,551.407410 
	C739.291870,551.407410 753.921448,551.482239 768.546509,551.259583 
	C769.666809,551.242554 771.439575,549.289001 771.759216,547.959167 
	C783.552551,498.900543 795.227966,449.813477 806.871460,400.718903 
	C809.355591,390.244598 811.656738,379.726837 814.116699,368.901245 
	C806.148071,366.940704 798.733521,365.116455 790.515015,363.080383 
M252.482910,540.084839 
	C253.381729,543.775085 254.280563,547.465332 255.161407,551.081787 
	C270.735809,551.081787 285.944733,551.081787 301.962189,551.081787 
	C286.317780,486.570862 270.816467,422.649841 255.247787,358.451141 
	C240.161636,362.068024 226.031387,365.455750 211.935776,368.835144 
	C212.095596,370.401886 212.089584,371.072998 212.239548,371.707306 
	C217.639267,394.549469 223.014511,417.397552 228.475128,440.225189 
	C236.375198,473.250763 244.338547,506.261139 252.482910,540.084839 
M833.503601,409.077484 
	C832.077087,408.767059 830.650513,408.456604 828.675232,408.026703 
	C819.900818,444.713531 811.191833,481.127014 802.421265,517.797668 
	C816.110168,517.797668 828.893738,517.797668 841.979919,517.797668 
	C849.855164,484.878937 857.696411,452.102570 865.569702,419.192017 
	C854.568604,415.717743 844.415894,412.511414 833.503601,409.077484 
M201.705383,426.651947 
	C200.164703,420.568115 198.624039,414.484253 196.993118,408.044098 
	C184.698792,411.874786 172.881622,415.556793 161.143784,419.214081 
	C161.143784,420.177002 161.046860,420.686523 161.157623,421.145935 
	C168.682648,452.362000 176.271072,483.563019 183.686508,514.805054 
	C184.366516,517.670044 185.813889,518.046082 188.224396,518.033081 
	C199.044769,517.974609 209.865738,518.030518 220.686371,518.001770 
	C221.599472,517.999329 222.511719,517.675598 223.756699,517.437622 
	C216.420975,487.229645 209.163010,457.341858 201.705383,426.651947 
z"/>
<path fill="#E81F26" opacity="1.000000" stroke="none" 
	d="
M496.040222,681.942627 
	C447.466034,649.043945 399.419739,615.997498 350.717285,583.948120 
	C341.095947,577.616699 336.526306,570.410889 333.910400,559.635132 
	C313.478424,475.467346 292.518951,391.427582 271.723846,307.347961 
	C269.513397,298.410553 271.836304,295.608032 281.109528,295.604980 
	C337.769684,295.586517 394.429871,295.478394 451.090027,295.482300 
	C522.911865,295.487244 594.733765,295.591858 666.555603,295.609711 
	C695.719116,295.616974 724.882568,295.508820 754.046082,295.453857 
	C755.814514,295.450531 757.583008,295.453430 760.133301,295.453430 
	C756.575439,306.110779 753.273254,315.998413 749.973755,325.886902 
	C745.333984,339.792297 740.585388,353.662933 736.128906,367.626801 
	C734.877441,371.548096 732.993286,372.944122 728.723816,372.937866 
	C642.229858,372.811188 555.735657,372.853821 469.241486,372.871948 
	C437.243774,372.878662 405.246063,372.909607 373.248352,372.929291 
	C371.609344,372.930298 369.970367,372.929443 367.612610,372.929443 
	C369.223541,379.764893 370.661255,386.034546 372.180725,392.284271 
	C380.207947,425.301056 388.165527,458.335449 396.418610,491.295807 
	C397.374969,495.115143 399.611115,498.802124 401.951904,502.046997 
	C406.621826,508.520599 412.154724,514.389709 416.606384,520.996826 
	C419.923340,525.919800 423.596954,530.091064 428.481476,533.502258 
	C455.524658,552.388306 482.486206,571.392273 509.359009,590.519836 
	C512.494629,592.751709 514.478943,592.494324 517.537354,590.355225 
	C549.618958,567.917114 581.811279,545.637024 614.029663,523.395325 
	C616.925537,521.396240 618.747192,519.196899 619.422485,515.569153 
	C620.381836,510.415283 622.095886,505.401917 623.745789,499.386597 
	C619.162781,499.386597 615.544983,499.388916 611.927185,499.386230 
	C581.930176,499.364014 551.932861,499.387390 521.936707,499.210510 
	C519.992859,499.199036 517.294189,498.195068 516.233826,496.724548 
	C500.643951,475.104797 485.269958,453.329285 469.858063,431.581329 
	C469.124481,430.546082 468.515594,429.422455 467.453522,427.698761 
	C552.661987,427.698761 637.180847,427.698761 722.267090,427.698761 
	C721.369324,431.998566 720.616211,436.045685 719.674438,440.048462 
	C709.450562,483.504761 699.157959,526.944946 689.022827,570.421875 
	C688.169495,574.082642 686.480164,576.471252 683.364319,578.575500 
	C628.966370,615.311401 574.640137,652.153442 520.313232,688.994446 
	C513.422913,693.667114 513.465515,693.719177 506.694092,689.122131 
	C503.250275,686.784180 499.790619,684.469543 496.040222,681.942627 
z"/>
<path fill="#E71F26" opacity="1.000000" stroke="none" 
	d="
M790.916992,363.186279 
	C798.733521,365.116455 806.148071,366.940704 814.116699,368.901245 
	C811.656738,379.726837 809.355591,390.244598 806.871460,400.718903 
	C795.227966,449.813477 783.552551,498.900543 771.759216,547.959167 
	C771.439575,549.289001 769.666809,551.242554 768.546509,551.259583 
	C753.921448,551.482239 739.291870,551.407410 723.855896,551.407410 
	C739.423706,486.668701 754.807068,422.696777 770.285034,358.331573 
	C777.310791,359.980804 783.912903,361.530609 790.916992,363.186279 
z"/>
<path fill="#E61E25" opacity="1.000000" stroke="none" 
	d="
M252.378906,539.681396 
	C244.338547,506.261139 236.375198,473.250763 228.475128,440.225189 
	C223.014511,417.397552 217.639267,394.549469 212.239548,371.707306 
	C212.089584,371.072998 212.095596,370.401886 211.935776,368.835144 
	C226.031387,365.455750 240.161636,362.068024 255.247787,358.451141 
	C270.816467,422.649841 286.317780,486.570862 301.962189,551.081787 
	C285.944733,551.081787 270.735809,551.081787 255.161407,551.081787 
	C254.280563,547.465332 253.381729,543.775085 252.378906,539.681396 
z"/>
<path fill="#E61F26" opacity="1.000000" stroke="none" 
	d="
M833.883423,409.191284 
	C844.415894,412.511414 854.568604,415.717743 865.569702,419.192017 
	C857.696411,452.102570 849.855164,484.878937 841.979919,517.797668 
	C828.893738,517.797668 816.110168,517.797668 802.421265,517.797668 
	C811.191833,481.127014 819.900818,444.713531 828.675232,408.026703 
	C830.650513,408.456604 832.077087,408.767059 833.883423,409.191284 
z"/>
<path fill="#E61F26" opacity="1.000000" stroke="none" 
	d="
M201.805206,427.053040 
	C209.163010,457.341858 216.420975,487.229645 223.756699,517.437622 
	C222.511719,517.675598 221.599472,517.999329 220.686371,518.001770 
	C209.865738,518.030518 199.044769,517.974609 188.224396,518.033081 
	C185.813889,518.046082 184.366516,517.670044 183.686508,514.805054 
	C176.271072,483.563019 168.682648,452.362000 161.157623,421.145935 
	C161.046860,420.686523 161.143784,420.177002 161.143784,419.214081 
	C172.881622,415.556793 184.698792,411.874786 196.993118,408.044098 
	C198.624039,414.484253 200.164703,420.568115 201.805206,427.053040 
z"/>
</svg>